<?xml version="1.0" encoding="utf-8"?>
<!-- Generator: Adobe Illustrator 28.1.0, SVG Export Plug-In . SVG Version: 6.00 Build 0)  -->
<svg version="1.1" id="Layer_1" xmlns="http://www.w3.org/2000/svg" xmlns:xlink="http://www.w3.org/1999/xlink" x="0px" y="0px"
	 viewBox="0 0 599.2 183.7" style="enable-background:new 0 0 599.2 183.7;" xml:space="preserve">
<style type="text/css">
	.st0{fill:#1F32D6;}
</style>
<g id="图层_2">
	<g id="图层_2-2">
		<path class="st0" d="M413.7,113.4c0-21.3-17.3-38.6-38.6-38.6c-21.3,0-38.6,17.3-38.6,38.6c0,21.3,17.3,38.6,38.6,38.6
			C396.4,152,413.7,134.7,413.7,113.4C413.7,113.4,413.7,113.4,413.7,113.4z M599.2,113.4c0,38.8-31.5,70.2-70.3,70.2
			c-28.9,0-54.8-17.7-65.3-44.5l26.7-26.7v1.1c0.1,21.3,17.4,38.5,38.7,38.5s38.5-17.4,38.5-38.7s-17.4-38.5-38.7-38.5
			c-10.2,0-20,4.1-27.2,11.3L425,162.7c-27.2,27.6-71.6,28-99.2,0.8c-13.4-13.2-21-31.3-20.9-50.1V14.8c0.5-8.7,8-15.4,16.8-14.8
			c8,0.5,14.3,6.9,14.8,14.8v39.4c32.4-21.3,76-12.4,97.3,20.1c4.9,7.4,8.3,15.7,10.1,24.4l35.5-35.5c27.4-27.4,71.9-27.4,99.3,0
			C591.9,76.5,599.4,94.6,599.2,113.4L599.2,113.4z M294.3,113.4c0.1,38.8-31.3,70.2-70,70.3c-29,0.1-55-17.7-65.5-44.7l26.7-26.7
			v1.1c0.1,21.3,17.4,38.5,38.7,38.5s38.5-17.4,38.5-38.7S245.3,74.7,224,74.7c-10.2,0-20,4.1-27.2,11.3l-76.9,77
			c-27.4,27.4-71.9,27.4-99.3,0s-27.4-71.9,0-99.3c27.4-27.4,71.9-27.4,99.3,0c6.2,6.2,6.1,16.2-0.1,22.4
			c-6.2,6.2-16.2,6.1-22.4-0.1c-15.1-15.1-39.6-15-54.6,0.1s-15,39.6,0.1,54.6c15.1,15,39.5,15,54.5,0l77.1-77.3
			c27.4-27.4,71.8-27.5,99.2-0.1C287,76.6,294.4,94.6,294.3,113.4L294.3,113.4z"/>
	</g>
</g>
</svg>
